<?xml version="1.0" encoding="utf-8"?>
<!-- Generator: Adobe Illustrator 21.0.0, SVG Export Plug-In . SVG Version: 6.00 Build 0)  -->
<svg version="1.1" id="Layer_1" xmlns="http://www.w3.org/2000/svg" xmlns:xlink="http://www.w3.org/1999/xlink" x="0px" y="0px"
	 viewBox="0 0 78.5 52.1" style="enable-background:new 0 0 78.5 52.1;" xml:space="preserve">
<style type="text/css">
	.st0{fill:#FFFFFF;}
	.st1{fill:#FFF176;}
	.st2{fill:#90CAF9;}
	.st3{fill:#F8F8F8;}
	.st4{fill:#FFA726;}
	.st5{fill:#B4E66E;}
	.st6{fill:#A0D755;}
	.st7{fill:#666666;}
	.st8{fill:#E6E6E6;}
</style>
<circle class="st0" cx="40.6" cy="33.5" r="1.9"/>
<circle class="st0" cx="52.4" cy="33.5" r="1.9"/>
<path class="st0" d="M57.2,25l2.6-10.3c0.1-0.5-0.2-0.9-0.7-0.9h-24l-0.9-3.9c-0.1-0.3-0.4-0.6-0.7-0.6h-5.2c-0.4,0-0.7,0.3-0.7,0.7
	c0,0.4,0.3,0.7,0.7,0.7h4.6l4.3,18.6c0.1,0.3,0.4,0.6,0.7,0.6h19.2c0.4,0,0.7-0.3,0.7-0.7s-0.3-0.7-0.7-0.7H38.5l-0.7-2.9h18.7
	C56.8,25.6,57.1,25.3,57.2,25z"/>
<g>
	<g>
		<path class="st1" d="M75.8,33.9v10.4c0,0.7-0.5,1.2-1.2,1.2h-21V20.1h10.9c0.8,0,1.6,0.6,1.7,1.4l0.2,1.1h-9.7
			c-0.7,0-1.3,0.6-1.3,1.3v5c0,0.7,0.6,1.3,1.3,1.3h15.4C74.1,30.2,75.8,31.9,75.8,33.9z"/>
		<path class="st2" d="M67.9,30.2H56.8c-0.7,0-1.3-0.6-1.3-1.3v-5c0-0.7,0.6-1.3,1.3-1.3h9.7L67.9,30.2z"/>
		<path class="st3" d="M75.8,36.5h-6.3c-0.7,0-1.3-0.6-1.3-1.3l0,0c0-0.7,0.6-1.3,1.3-1.3h6.3V36.5z"/>
		<path class="st4" d="M72,37.8v5h-2c-1,0-1.8-0.8-1.8-1.8v-1.6c0-1,0.8-1.8,1.8-1.8h2V37.8z"/>
		<rect x="72" y="37.8" class="st3" width="3.8" height="5"/>
	</g>
	<path class="st5" d="M52.1,11.3h-31h-9.4c-1,0-1.6,0.7-1.6,1.7v8v17.9h43.5V12.9C53.6,12,52.9,11.3,52.1,11.3z"/>
	<path class="st5" d="M53.6,38.8v6.6h-42c-0.2,0-0.5,0-0.6-0.1c-0.2-0.1-0.4-0.2-0.5-0.4c-0.2-0.4-0.5-0.7-0.5-1.2v-4.9
		C10.1,38.8,53.6,38.8,53.6,38.8z"/>
	<path class="st6" d="M53.6,38.8v6.6h-42c-0.2,0-0.5,0-0.6-0.1c-0.2-0.1-0.4-0.2-0.5-0.4c-0.2-0.4-0.5-0.7-0.5-1.2v-4.9
		C10.1,38.8,53.6,38.8,53.6,38.8z"/>
	<g>
		<circle class="st7" cx="24.3" cy="45.7" r="5.5"/>
		<circle class="st8" cx="24.3" cy="45.7" r="2.6"/>
	</g>
	<g>
		<circle class="st7" cx="60.9" cy="45.7" r="5.5"/>
		<circle class="st8" cx="60.9" cy="45.7" r="2.6"/>
	</g>
	<g>
		<path class="st5" d="M13.4,36.7H2c-0.6,0-1.1-0.5-1.1-1.1s0.5-1.1,1.1-1.1h11.4c0.6,0,1.1,0.5,1.1,1.1S14,36.7,13.4,36.7z"/>
		<path class="st0" d="M15.7,38.8H4.4c-0.6,0-1.1-0.5-1.1-1.1c0-0.6,0.5-1.1,1.1-1.1h11.4c0.6,0,1.1,0.5,1.1,1.1
			C16.8,38.3,16.3,38.8,15.7,38.8z"/>
		<path class="st6" d="M18.6,40.9H7.2c-0.6,0-1.1-0.5-1.1-1.1s0.5-1.1,1.1-1.1h11.4c0.6,0,1.1,0.5,1.1,1.1
			C19.6,40.5,19.2,40.9,18.6,40.9z"/>
	</g>
</g>
</svg>
