<?xml version="1.0" encoding="utf-8"?>
<!-- Generator: Adobe Illustrator 21.0.0, SVG Export Plug-In . SVG Version: 6.00 Build 0)  -->
<svg version="1.1" id="Layer_1" xmlns="http://www.w3.org/2000/svg" xmlns:xlink="http://www.w3.org/1999/xlink" x="0px" y="0px"
	 viewBox="0 0 65 63.1" style="enable-background:new 0 0 65 63.1;" xml:space="preserve">
<style type="text/css">
	.st0{fill:#FFFFFF;}
	.st1{fill:#3FC0D6;}
	.st2{fill:#2FA9AF;}
	.st3{fill:#CCCCCC;}
	.st4{fill:#FFE1B2;}
	.st5{fill:#C69C6D;}
	.st6{fill:#4D4D4D;}
	.st7{fill:#E4B07B;}
	.st8{fill:none;stroke:#E6E6E6;stroke-width:1.1977;stroke-miterlimit:10;}
	.st9{fill:none;stroke:#E6E6E6;stroke-width:1.6769;stroke-linecap:round;stroke-linejoin:round;stroke-miterlimit:10;}
	.st10{fill:#808080;}
</style>
<circle class="st0" cx="27.1" cy="44.5" r="1.9"/>
<circle class="st0" cx="38.9" cy="44.5" r="1.9"/>
<path class="st0" d="M43.7,36l2.6-10.3c0.1-0.5-0.2-0.9-0.7-0.9h-24l-0.9-3.9c-0.1-0.3-0.4-0.6-0.7-0.6h-5.2c-0.4,0-0.7,0.3-0.7,0.7
	c0,0.4,0.3,0.7,0.7,0.7h4.6l4.3,18.6c0.1,0.3,0.4,0.6,0.7,0.6h19.2c0.4,0,0.7-0.3,0.7-0.7s-0.3-0.7-0.7-0.7H25l-0.7-2.9H43
	C43.3,36.6,43.6,36.3,43.7,36z"/>
<g>
	<path class="st1" d="M54.8,57.1c0-11.9-9.7-21.5-21.5-21.5s-21.5,9.7-21.5,21.5c0,1.6,0.2,3.3,0.5,4.8h42
		C54.6,60.4,54.8,58.7,54.8,57.1z"/>
	<path class="st2" d="M57.3,61.9h-48c-1.3,0-2.4-1.1-2.4-2.4S7.9,57,9.3,57h48c1.3,0,2.4,1.1,2.4,2.4S58.5,61.9,57.3,61.9z"/>
	<g>
		<circle class="st3" cx="52.4" cy="26" r="3.6"/>
		<circle class="st3" cx="14.1" cy="26" r="3.6"/>
		<g>
			<path class="st4" d="M37.8,39.4h-9.1c-7.4,0-13.4-6-13.4-13.4V15.5h36V26C51.2,33.4,45.3,39.4,37.8,39.4z"/>
			<path class="st5" d="M33.3,1.5c-3.4,0-6.8,0.8-9.7,2.5c-6.2,3.5-10,10.1-10,17.1c0,1.5,0.1,2.9,0.4,4.1l0.1,0.5l0.5-0.1
				c4.7-1.3,8.7-4.4,11.4-8.9c3.5,5.9,10,9.7,16.9,9.7c3.4,0,6.8-0.8,9.9-2.9c0.1-0.7,0.1-1.6,0.1-2.3C52.9,10.3,44.1,1.5,33.3,1.5z
				"/>
			<path class="st6" d="M26,28.3c-0.8,0-1.5-0.6-1.5-1.5v-1.5c0-0.8,0.6-1.5,1.5-1.5s1.5,0.6,1.5,1.5v1.5
				C27.4,27.6,26.8,28.3,26,28.3L26,28.3z"/>
			<path class="st6" d="M41.6,28.3c-0.8,0-1.5-0.6-1.5-1.5v-1.5c0-0.8,0.6-1.5,1.5-1.5c0.8,0,1.5,0.6,1.5,1.5v1.5
				C43,27.6,42.4,28.3,41.6,28.3L41.6,28.3z"/>
			<path class="st7" d="M33.7,34.4c-1.6,0-3-0.4-4-1.1c-0.4-0.3-0.5-0.8-0.2-1.2c0.3-0.4,0.8-0.5,1.2-0.2c0.6,0.4,1.8,0.7,3,0.7
				c1.2,0,2.3-0.3,3-0.7c0.4-0.3,1-0.2,1.2,0.2c0.3,0.4,0.2,1-0.2,1.2C36.7,34,35.2,34.4,33.7,34.4L33.7,34.4z"/>
		</g>
		<path class="st8" d="M33.3,41.3"/>
		<path class="st9" d="M13.2,22.5c0-0.4,0-0.8,0-1.4C13.2,10,22.2,1,33.4,1s20.2,9,20.2,20.2c0,9.2-6.3,17.1-14.9,19.4"/>
		<path class="st10" d="M39,42.5h-1.9c-0.7,0-1.5-0.6-1.5-1.5v-0.5c0-0.7,0.6-1.5,1.5-1.5H39c0.7,0,1.5,0.6,1.5,1.5V41
			C40.5,41.8,39.8,42.5,39,42.5z"/>
	</g>
</g>
</svg>
