<?xml version="1.0" encoding="utf-8"?>
<!-- Generator: Adobe Illustrator 21.0.0, SVG Export Plug-In . SVG Version: 6.00 Build 0)  -->
<svg version="1.1" id="Layer_1" xmlns="http://www.w3.org/2000/svg" xmlns:xlink="http://www.w3.org/1999/xlink" x="0px" y="0px"
	 viewBox="0 0 65 63.1" style="enable-background:new 0 0 65 63.1;" xml:space="preserve">
<style type="text/css">
	.st0{fill:#FFFFFF;}
	.st1{fill:#F06292;}
	.st2{fill:#4D4D4D;}
	.st3{fill:#F48FB1;}
	.st4{fill:#F8BBD0;}
	.st5{fill:none;stroke:#F8BBD0;stroke-width:1.6052;stroke-linecap:round;stroke-linejoin:round;stroke-miterlimit:10;}
	.st6{fill:#FFEE58;}
</style>
<circle class="st0" cx="27.1" cy="44.5" r="1.9"/>
<circle class="st0" cx="38.9" cy="44.5" r="1.9"/>
<path class="st0" d="M43.7,36l2.6-10.3c0.1-0.5-0.2-0.9-0.7-0.9h-24l-0.9-3.9c-0.1-0.3-0.4-0.6-0.7-0.6h-5.2c-0.4,0-0.7,0.3-0.7,0.7
	c0,0.4,0.3,0.7,0.7,0.7h4.6l4.3,18.6c0.1,0.3,0.4,0.6,0.7,0.6h19.2c0.4,0,0.7-0.3,0.7-0.7s-0.3-0.7-0.7-0.7H25l-0.7-2.9H43
	C43.3,36.6,43.6,36.3,43.7,36z"/>
<g>
	<g>
		<path class="st1" d="M15.2,51.2C13.6,53,12.1,54.3,11,55c-2.7,1.7,3.9,6.8,11.3,7.5c5.7,0.6,9.8-2.5,11-3.5c1.2,1,5.3,4.1,11,3.5
			c7.4-0.8,14-5.8,11.3-7.5c-1-0.6-2.6-1.9-4.1-3.7L15.2,51.2z"/>
		<path class="st2" d="M33,9.3"/>
		<path class="st3" d="M17.7,47.9c-1.3,1.5-2.7,2.6-3.6,3.2c-2.3,1.4,3.3,5.7,9.6,6.4c4.8,0.5,8.3-2.1,9.3-3c1,0.9,4.5,3.5,9.3,3
			c6.2-0.6,11.9-5,9.6-6.4c-0.9-0.5-2.2-1.7-3.5-3.1L17.7,47.9z"/>
		<path class="st4" d="M41.1,36.7c-1.5-10.2,8.7-17,5.8-24.8c-1.1-3.1-3.2-5-6.7-5.1c-1.2,0-2.3,0.2-3.2,0.6
			c-2.4,1.1-3.6,3.2-3.8,3.8c0,0.1-0.1,0.4-0.2,0.4c-0.1,0-0.2-0.3-0.2-0.4c-0.1-0.7-1.5-2.7-3.8-3.8c-1-0.4-2-0.6-3.3-0.6
			c-3.5,0.1-5.6,2-6.7,5.1c-2.9,7.8,7.3,14.6,5.8,24.8c-0.7,5-6.1,9.8-8.1,11c-2,1.2,2.9,5,8.3,5.5c4.2,0.4,7.2-1.8,8-2.6
			c0.9,0.8,3.9,3,8,2.6c5.4-0.6,10.3-4.3,8.3-5.5C47.3,46.5,41.8,41.7,41.1,36.7z"/>
		<path class="st5" d="M22.5,7.8"/>
		<path class="st5" d="M22.5,11"/>
		<line class="st5" x1="21.8" y1="1.4" x2="23.2" y2="9.3"/>
		<line class="st5" x1="44.7" y1="1.4" x2="43.3" y2="9.3"/>
	</g>
	<path class="st6" d="M16.9,8C16.9,8,17,8,17,8h-0.3c-0.4-0.1-1.2-0.3-1.8-1c-0.6-0.6-0.8-1.3-0.9-1.7V5c0,0,0,0.1,0,0.1
		C14,5.1,14,5,14,5v0.3c-0.1,0.4-0.3,1.1-0.9,1.7c-0.7,0.7-1.4,0.9-1.8,1H11c0,0,0.1,0,0.1,0C11.1,8,11,8,11,8h0.3
		c0.4,0.1,1.2,0.3,1.8,1c0.6,0.6,0.8,1.3,0.9,1.7V11c0,0,0-0.1,0-0.1c0,0.1,0,0.1,0,0.1v-0.3c0.1-0.4,0.3-1.1,0.9-1.7
		c0.7-0.7,1.4-0.9,1.8-1H17C17,8,16.9,8,16.9,8z"/>
	<path class="st6" d="M20.5,38c0.1,0,0.1,0,0.1,0h-0.3c-0.4-0.1-1.2-0.3-1.8-1c-0.6-0.6-0.8-1.3-0.9-1.7V35c0,0,0,0.1,0,0.1
		c0-0.1,0-0.1,0-0.1v0.3c-0.1,0.4-0.3,1.1-0.9,1.7c-0.7,0.7-1.4,0.9-1.8,1h-0.3c0,0,0.1,0,0.1,0c-0.1,0-0.1,0-0.1,0h0.3
		c0.4,0.1,1.2,0.3,1.8,1c0.6,0.6,0.8,1.3,0.9,1.7V41c0,0,0-0.1,0-0.1c0,0.1,0,0.1,0,0.1v-0.3c0.1-0.4,0.3-1.1,0.9-1.7
		c0.7-0.7,1.4-0.9,1.8-1h0.3C20.6,38,20.5,38,20.5,38z"/>
	<path class="st6" d="M54.1,23.6c0.1,0,0.1,0,0.1,0H54c-0.4-0.1-1.2-0.3-1.8-1c-0.6-0.6-0.8-1.3-0.9-1.7v-0.3c0,0,0,0.1,0,0.1
		c0-0.1,0-0.1,0-0.1v0.3c-0.1,0.4-0.3,1.1-0.9,1.7c-0.7,0.7-1.4,0.9-1.8,1h-0.3c0,0,0.1,0,0.1,0c-0.1,0-0.1,0-0.1,0h0.3
		c0.4,0.1,1.2,0.3,1.8,1c0.6,0.6,0.8,1.3,0.9,1.7v0.3c0,0,0-0.1,0-0.1c0,0.1,0,0.1,0,0.1v-0.3c0.1-0.4,0.3-1.1,0.9-1.7
		c0.7-0.7,1.4-0.9,1.8-1h0.3C54.2,23.6,54.1,23.6,54.1,23.6z"/>
</g>
</svg>
