<?xml version="1.0" encoding="utf-8"?>
<!-- Generator: Adobe Illustrator 21.0.0, SVG Export Plug-In . SVG Version: 6.00 Build 0)  -->
<svg version="1.1" id="Layer_1" xmlns="http://www.w3.org/2000/svg" xmlns:xlink="http://www.w3.org/1999/xlink" x="0px" y="0px"
	 viewBox="0 0 65 63.1" style="enable-background:new 0 0 65 63.1;" xml:space="preserve">
<style type="text/css">
	.st0{fill:#3FC0D6;}
	.st1{fill:#FFFFFF;}
</style>
<path class="st0" d="M0.8,15.7v29.7C0.8,46.8,2,48,3.4,48H22v9.6c0,0.7,0.8,1,1.3,0.6l12-10.1h25.3c1.4,0,2.6-1.2,2.6-2.6V15.7
	c0-1.4-1.2-2.6-2.6-2.6H3.4C2,13.1,0.8,14.2,0.8,15.7z"/>
<g>
	<path class="st1" d="M32.5,36.5h-3.6c-0.4,0-0.8-0.3-0.8-0.8v-14c0-0.4,0.3-0.8,0.8-0.8h3.6c0.4,0,0.8,0.3,0.8,0.8v14
		C33.3,36.1,33,36.5,32.5,36.5z"/>
	<circle class="st1" cx="30.7" cy="40.4" r="2.6"/>
</g>
</svg>
