<?xml version="1.0" encoding="utf-8"?>
<!-- Generator: Adobe Illustrator 21.0.0, SVG Export Plug-In . SVG Version: 6.00 Build 0)  -->
<svg version="1.1" id="Layer_1" xmlns="http://www.w3.org/2000/svg" xmlns:xlink="http://www.w3.org/1999/xlink" x="0px" y="0px"
	 viewBox="0 0 250 250" style="enable-background:new 0 0 250 250;" xml:space="preserve">
<style type="text/css">
	.st0{opacity:0.2;}
	.st1{fill:#3FC0D6;}
	.st2{opacity:0.5;}
	.st3{fill:#C69C6D;}
	.st4{fill:#6878BC;}
	.st5{fill:#7CA3E0;}
	.st6{fill:#A67C52;}
	.st7{fill:#5DDBE8;}
	.st8{fill:#FFFFFF;}
	.st9{fill:none;stroke:#FFFFFF;stroke-width:5.3825;stroke-linecap:round;stroke-linejoin:round;stroke-miterlimit:10;}
	.st10{opacity:5.000000e-02;fill:#333333;}
</style>
<g>
	<g>
		<g class="st0">
			
				<image style="overflow:visible;opacity:0.75;" width="1352" height="1353" xlink:href="B2B31170.png"  transform="matrix(0.24 0 0 0.24 -27.51 -29.67)">
			</image>
			<g>
				<path class="st1" d="M123.5,233.3c-61.6,0-111.8-50.2-111.8-111.8C11.7,59.8,61.9,9.6,123.5,9.6s111.8,50.2,111.8,111.8
					C235.3,183.1,185.1,233.3,123.5,233.3z"/>
			</g>
		</g>
		<g class="st2">
			
				<image style="overflow:visible;opacity:0.75;" width="1166" height="1167" xlink:href="B2B31171.png"  transform="matrix(0.24 0 0 0.24 -5.19 -7.35)">
			</image>
			<g>
				<circle class="st1" cx="123.5" cy="121.4" r="89.4"/>
			</g>
		</g>
	</g>
	<g>
		<path class="st3" d="M171.9,130.9h-43.1V98.6c0-3,2.4-5.4,5.4-5.4h32.3c3,0,5.4,2.4,5.4,5.4V130.9z"/>
		<path class="st4" d="M145,130.9H102V87.8c0-3,2.4-5.4,5.4-5.4h32.3c3,0,5.4,2.4,5.4,5.4V130.9z"/>
		<path class="st5" d="M118.1,130.9H75.1V98.6c0-3,2.4-5.4,5.4-5.4h32.3c3,0,5.4,2.4,5.4,5.4V130.9z"/>
		<path class="st6" d="M164.9,109.4h-2.2c-0.9,0-1.6-0.7-1.6-1.6v-7.5c0-0.9,0.7-1.6,1.6-1.6h2.2c0.9,0,1.6,0.7,1.6,1.6v7.5
			C166.6,108.6,165.8,109.4,164.9,109.4z"/>
		<path class="st1" d="M174.6,235.9H72.4c-3,0-5.4-2.4-5.4-5.4V122.8h113v107.6C180,233.4,177.6,235.9,174.6,235.9z"/>
		<rect x="67" y="122.8" class="st7" width="113" height="13.5"/>
		<g>
			<circle class="st8" cx="103.9" cy="149.9" r="5.4"/>
			<circle class="st8" cx="142" cy="149.9" r="5.4"/>
			<path class="st9" d="M103.9,174c0,10.5,8.5,19,19,19s19-8.5,19-19"/>
			<line class="st9" x1="103.9" y1="174" x2="103.9" y2="150.7"/>
			<line class="st9" x1="142" y1="174" x2="142" y2="150.7"/>
		</g>
		<path class="st10" d="M83.1,235.9H72.4c-3,0-5.4-2.4-5.4-5.4V122.8h10.8v107.6C77.7,233.4,80.2,235.9,83.1,235.9z"/>
	</g>
</g>
</svg>
