<?xml version="1.0" encoding="utf-8"?>
<!-- Generator: Adobe Illustrator 21.0.0, SVG Export Plug-In . SVG Version: 6.00 Build 0)  -->
<svg version="1.1" id="Layer_1" xmlns="http://www.w3.org/2000/svg" xmlns:xlink="http://www.w3.org/1999/xlink" x="0px" y="0px"
	 viewBox="0 0 65 63.1" style="enable-background:new 0 0 65 63.1;" xml:space="preserve">
<style type="text/css">
	.st0{fill:#3FC0D6;}
	.st1{fill:#FFFFFF;}
</style>
<circle class="st0" cx="33" cy="31.5" r="29.9"/>
<circle class="st1" cx="27.1" cy="44.5" r="1.9"/>
<circle class="st1" cx="38.9" cy="44.5" r="1.9"/>
<path class="st1" d="M43.7,36l2.6-10.3c0.1-0.5-0.2-0.9-0.7-0.9h-24l-0.9-3.9c-0.1-0.3-0.4-0.6-0.7-0.6h-5.2c-0.4,0-0.7,0.3-0.7,0.7
	c0,0.4,0.3,0.7,0.7,0.7h4.6l4.3,18.6c0.1,0.3,0.4,0.6,0.7,0.6h19.2c0.4,0,0.7-0.3,0.7-0.7s-0.3-0.7-0.7-0.7H25l-0.7-2.9H43
	C43.3,36.6,43.6,36.3,43.7,36z"/>
</svg>
