<?xml version="1.0" encoding="utf-8"?>
<!-- Generator: Adobe Illustrator 21.0.0, SVG Export Plug-In . SVG Version: 6.00 Build 0)  -->
<svg version="1.1" id="Layer_1" xmlns="http://www.w3.org/2000/svg" xmlns:xlink="http://www.w3.org/1999/xlink" x="0px" y="0px"
	 viewBox="0 0 65 63.1" style="enable-background:new 0 0 65 63.1;" xml:space="preserve">
<style type="text/css">
	.st0{fill:#FFFFFF;}
	.st1{fill:#6878BC;}
	.st2{fill:#9FA8DA;}
	.st3{fill:#8B99D8;}
</style>
<circle class="st0" cx="27.1" cy="44.5" r="1.9"/>
<circle class="st0" cx="38.9" cy="44.5" r="1.9"/>
<path class="st0" d="M43.7,36l2.6-10.3c0.1-0.5-0.2-0.9-0.7-0.9h-24l-0.9-3.9c-0.1-0.3-0.4-0.6-0.7-0.6h-5.2c-0.4,0-0.7,0.3-0.7,0.7
	c0,0.4,0.3,0.7,0.7,0.7h4.6l4.3,18.6c0.1,0.3,0.4,0.6,0.7,0.6h19.2c0.4,0,0.7-0.3,0.7-0.7s-0.3-0.7-0.7-0.7H25l-0.7-2.9H43
	C43.3,36.6,43.6,36.3,43.7,36z"/>
<g>
	<g>
		<path class="st1" d="M50.4,6.5l-2.8,53c0,0.8-0.7,1.5-1.6,1.5H33.2c-0.8,0-1.4-0.6-1.6-1.4l-4.5-30.1c0-0.4-0.3-0.7-0.7-0.7
			c-0.3,0-0.7,0.3-0.7,0.7l-4.5,30.1c-0.1,0.8-0.8,1.4-1.5,1.4H6.8c-0.8,0-1.5-0.7-1.5-1.5l-2.8-53H50.4z"/>
		<path class="st2" d="M50.6,2.6l-0.2,4.3H2.5L2.3,2.5c0-0.9,0.7-1.6,1.6-1.6l45.2,0C49.9,0.9,50.6,1.7,50.6,2.6z"/>
	</g>
	<g>
		<path class="st3" d="M63.7,30.6l-1.6,29.6c0,0.5-0.4,0.8-0.9,0.8h-7.2c-0.4,0-0.8-0.3-0.9-0.8l-2.5-16.8c0-0.2-0.2-0.4-0.4-0.4
			c-0.2,0-0.4,0.2-0.4,0.4l-2.5,16.8c-0.1,0.4-0.4,0.8-0.9,0.8h-7.2c-0.5,0-0.8-0.4-0.9-0.8L37,30.6H63.7z"/>
		<path class="st2" d="M63.9,28.5l-0.1,2.4H37l-0.1-2.4c0-0.5,0.4-0.9,0.9-0.9l25.2,0C63.5,27.5,63.9,28,63.9,28.5z"/>
	</g>
</g>
</svg>
