<?xml version="1.0" encoding="utf-8"?>
<!-- Generator: Adobe Illustrator 21.0.0, SVG Export Plug-In . SVG Version: 6.00 Build 0)  -->
<svg version="1.1" id="Layer_1" xmlns="http://www.w3.org/2000/svg" xmlns:xlink="http://www.w3.org/1999/xlink" x="0px" y="0px"
	 viewBox="0 0 65 63.1" style="enable-background:new 0 0 65 63.1;" xml:space="preserve">
<style type="text/css">
	.st0{fill:#3FC0D6;}
	.st1{fill:#FFFFFF;}
</style>
<path class="st0" d="M61.5,31.3c0,8.4-3.6,16-9.4,21.1c-4-6.4-11-10.6-19.1-10.6S17.9,46,13.9,52.4c-5.8-5.2-9.4-12.8-9.4-21.1
	C4.5,15.5,17.3,2.8,33,2.8S61.5,15.5,61.5,31.3z"/>
<circle class="st1" cx="33" cy="29.1" r="10.5"/>
<path class="st1" d="M52.1,52.4C47,57,40.3,59.8,33,59.8S19,57,13.9,52.4c3.9-6.4,11-10.6,19.1-10.6S48.1,46,52.1,52.4z"/>
</svg>
