<?xml version="1.0" encoding="utf-8"?>
<!-- Generator: Adobe Illustrator 21.0.0, SVG Export Plug-In . SVG Version: 6.00 Build 0)  -->
<svg version="1.1" id="Layer_1" xmlns="http://www.w3.org/2000/svg" xmlns:xlink="http://www.w3.org/1999/xlink" x="0px" y="0px"
	 viewBox="0 0 65 63.1" style="enable-background:new 0 0 65 63.1;" xml:space="preserve">
<style type="text/css">
	.st0{fill:#3FC0D6;}
	.st1{fill:#FFFFFF;}
</style>
<path class="st0" d="M1.9,16.4V45c0,1.4,1.1,2.5,2.5,2.5h17.9v9.2c0,0.6,0.7,1,1.2,0.6l11.6-9.8h24.3c1.4,0,2.5-1.1,2.5-2.5V16.4
	c0-1.4-1.1-2.5-2.5-2.5h-55C3,13.9,1.9,15.1,1.9,16.4z"/>
<g>
	<path class="st1" d="M17.1,25.4l1.6,3.2l3.5,0.5c0.2,0,0.3,0.3,0.1,0.4L19.8,32l0.6,3.5c0,0.2-0.2,0.3-0.3,0.2L16.9,34l-3.2,1.7
		c-0.2,0.1-0.4-0.1-0.3-0.2L14,32l-2.6-2.5c-0.1-0.1-0.1-0.4,0.1-0.4l3.5-0.5l1.6-3.2C16.8,25.3,17,25.3,17.1,25.4z"/>
	<path class="st1" d="M32.1,25.4l1.6,3.2l3.5,0.5c0.2,0,0.3,0.3,0.1,0.4L34.8,32l0.6,3.5c0,0.2-0.2,0.3-0.3,0.2L31.9,34l-3.2,1.7
		c-0.2,0.1-0.4-0.1-0.3-0.2L29,32l-2.6-2.5c-0.1-0.1-0.1-0.4,0.1-0.4l3.5-0.5l1.6-3.2C31.8,25.3,32,25.3,32.1,25.4z"/>
	<path class="st1" d="M47.1,25.4l1.6,3.2l3.5,0.5c0.2,0,0.3,0.3,0.1,0.4L49.8,32l0.6,3.5c0,0.2-0.2,0.3-0.3,0.2L46.9,34l-3.2,1.7
		c-0.2,0.1-0.4-0.1-0.3-0.2L44,32l-2.6-2.5c-0.1-0.1-0.1-0.4,0.1-0.4l3.5-0.5l1.6-3.2C46.8,25.3,47,25.3,47.1,25.4z"/>
</g>
</svg>
